<svg width="25" height="17" viewBox="0 0 25 17" fill="none" xmlns="http://www.w3.org/2000/svg">
<path d="M23.9583 0.166016H3.81944C3.24414 0.166016 2.77778 0.632378 2.77778 1.20768V1.5549H1.04167C0.466363 1.5549 0 2.02127 0 2.59657V14.4021C0 15.7445 1.08819 16.8327 2.43056 16.8327H22.9167C24.0673 16.8327 25 15.9 25 14.7493V1.20768C25 0.632378 24.5336 0.166016 23.9583 0.166016ZM2.43056 14.7493C2.33847 14.7493 2.25015 14.7128 2.18503 14.6476C2.11992 14.5825 2.08333 14.4942 2.08333 14.4021V3.63824H2.77778V14.4021C2.77778 14.4942 2.7412 14.5825 2.67608 14.6476C2.61096 14.7128 2.52264 14.7493 2.43056 14.7493ZM12.6736 14.0549H6.07639C5.78876 14.0549 5.55556 13.8217 5.55556 13.5341V13.1868C5.55556 12.8992 5.78876 12.666 6.07639 12.666H12.6736C12.9612 12.666 13.1944 12.8992 13.1944 13.1868V13.5341C13.1944 13.8217 12.9612 14.0549 12.6736 14.0549ZM21.7014 14.0549H15.1042C14.8165 14.0549 14.5833 13.8217 14.5833 13.5341V13.1868C14.5833 12.8992 14.8165 12.666 15.1042 12.666H21.7014C21.989 12.666 22.2222 12.8992 22.2222 13.1868V13.5341C22.2222 13.8217 21.989 14.0549 21.7014 14.0549ZM12.6736 9.88824H6.07639C5.78876 9.88824 5.55556 9.65503 5.55556 9.3674V9.02018C5.55556 8.73255 5.78876 8.49935 6.07639 8.49935H12.6736C12.9612 8.49935 13.1944 8.73255 13.1944 9.02018V9.3674C13.1944 9.65503 12.9612 9.88824 12.6736 9.88824ZM21.7014 9.88824H15.1042C14.8165 9.88824 14.5833 9.65503 14.5833 9.3674V9.02018C14.5833 8.73255 14.8165 8.49935 15.1042 8.49935H21.7014C21.989 8.49935 22.2222 8.73255 22.2222 9.02018V9.3674C22.2222 9.65503 21.989 9.88824 21.7014 9.88824ZM21.7014 5.72157H6.07639C5.78876 5.72157 5.55556 5.48837 5.55556 5.20074V3.46463C5.55556 3.177 5.78876 2.94379 6.07639 2.94379H21.7014C21.989 2.94379 22.2222 3.177 22.2222 3.46463V5.20074C22.2222 5.48837 21.989 5.72157 21.7014 5.72157Z" fill="black"/>
</svg>
